<svg xmlns="http://www.w3.org/2000/svg" width="640" height="640" viewBox="0 0 640 640" role="img" aria-labelledby="title">
  <title id="title">Orange marine life jacket product artwork</title>
  <rect width="640" height="640" fill="#f4f8fb"/>
  <circle cx="496" cy="116" r="68" fill="#d9e9f4"/>
  <path d="M199 144h82c9 45 69 45 78 0h82c34 0 62 28 62 62v274c0 39-31 70-70 70H207c-39 0-70-31-70-70V206c0-34 28-62 62-62Z" fill="#f97316"/>
  <path d="M233 166v336M407 166v336" stroke="#fff7ed" stroke-width="24" stroke-linecap="round"/>
  <path d="M202 276h89M349 276h89M202 392h89M349 392h89" stroke="#102846" stroke-width="18" stroke-linecap="round"/>
  <path d="M282 126c0 25 17 48 38 48s38-23 38-48" fill="none" stroke="#102846" stroke-width="18" stroke-linecap="round"/>
  <rect x="220" y="470" width="200" height="28" rx="14" fill="#102846"/>
</svg>
